<?xml version="1.0" standalone="no"?>
<!DOCTYPE svg PUBLIC "-//W3C//DTD SVG 20010904//EN"
 "http://www.w3.org/TR/2001/REC-SVG-20010904/DTD/svg10.dtd">
<svg version="1.0" xmlns="http://www.w3.org/2000/svg"
 width="512.000000pt" height="512.000000pt" viewBox="0 0 512.000000 512.000000"
 preserveAspectRatio="xMidYMid meet">
<metadata>
Created by potrace 1.14, written by Peter Selinger 2001-2017
</metadata>
<g transform="translate(0.000000,512.000000) scale(0.100000,-0.100000)"
fill="#000000" stroke="none">
<path d="M2099 4590 c-62 -21 -110 -71 -132 -135 -20 -60 -15 -277 8 -333 21
-52 82 -106 138 -121 30 -9 165 -11 467 -9 418 3 426 3 467 25 43 24 93 86
109 138 5 17 9 84 8 150 -1 135 -16 186 -72 242 -59 59 -84 61 -533 61 -367 0
-410 -2 -460 -18z"/>
<path d="M2399 3929 c-379 -31 -750 -204 -1035 -483 -205 -200 -342 -417 -429
-681 -63 -189 -80 -304 -80 -545 0 -188 4 -229 36 -378 121 -556 554 -1044
1094 -1230 192 -67 340 -93 540 -97 375 -8 728 102 1037 321 111 79 308 278
388 392 221 315 324 647 316 1022 -5 190 -9 228 -41 367 -80 338 -272 660
-526 882 -120 104 -155 130 -269 198 -196 118 -436 200 -666 228 -80 9 -271
12 -365 4z"/>
</g>
</svg>
